# xmcd
#
# Track frame offsets:
#       150
#       13177
#       32515
#       48203
#       66713
#       82517
#       97111
#       114044
#       126356
#       142319
#       155053
#       176121
#       197657
#       215241
#       231387
#       248691
#       267444
#       284580
#       301050
#       318023
#
# Disc length: 4440 seconds
#
# Revision: 0
# Processed by: cddbd v1.5.1PL0 Copyright (c) Steve Scherf et al.
# Submitted via: CD-DA_X-Tractor v0.24
#
DISCID=27115614
DTITLE=Various Artist - Girl power - the 20 best
DYEAR=1998
DGENRE=hardcore
TTITLE0=Spice up your life
TTITLE1=Angel of mine
TTITLE2=Freed from desire
TTITLE3=Too gone too long
TTITLE4=Ain´t it just the way
TTITLE5=Free
TTITLE6=Ooh Ah. Just a little bit
TTITLE7=Samba de janeiro
TTITLE8=Oh la la la
TTITLE9=Wannabe
TTITLE10=All cried out
TTITLE11=Tomorrow never dies
TTITLE12=The real thing
TTITLE13=Keep the fire burnin´
TTITLE14=You might need somebody
TTITLE15=You´re making me high
TTITLE16=Professional widow
TTITLE17=I wanna be the only one
TTITLE18=Tic, tic, tac
TTITLE19=Got ´til it´s gone
EXTD=
EXTT0=
EXTT1=
EXTT2=
EXTT3=
EXTT4=
EXTT5=
EXTT6=
EXTT7=
EXTT8=
EXTT9=
EXTT10=
EXTT11=
EXTT12=
EXTT13=
EXTT14=
EXTT15=
EXTT16=
EXTT17=
EXTT18=
EXTT19=
PLAYORDER=
